<svg xmlns="http://www.w3.org/2000/svg" style="border:0px solid;">
<symbol id="icon-cloud" viewBox="0 0 72 44">
    <path d="M13.7053 43.0251C6.51655 42.9778 0.678101 37.1095 0.678101 29.9438C0.678101 23.7168 4.97341 18.5117 10.8206 17.1882C10.7255 16.6651 10.6778 16.1314 10.6778 15.5889C10.6778 10.6833 14.6688 6.69242 19.5744 6.69242C21.2037 6.69242 22.7655 7.12727 24.1281 7.94213C27.8617 3.00477 33.6228 0.11319 39.9103 0.11319C49.7369 0.11319 58.0199 7.35181 59.4895 16.8902C66.2909 17.3484 71.6847 23.0281 71.6847 29.9438C71.6847 37.0859 65.8742 42.9538 58.732 43.0241L13.7053 43.0251ZM19.5744 10.4296C16.7295 10.4296 14.415 12.744 14.415 15.5889C14.415 16.4004 14.5992 17.1785 14.9625 17.9011C15.2479 18.4686 15.2253 19.1422 14.9027 19.6895C14.5801 20.2366 14.0015 20.5824 13.3668 20.6075C8.34728 20.8057 4.41529 24.9067 4.41529 29.9438C4.41529 35.0623 8.58834 39.2542 13.7177 39.2879L58.7136 39.287C63.7969 39.2368 67.9475 35.0454 67.9475 29.9438C67.9475 24.7902 63.7549 20.5976 58.6015 20.5976C58.4094 20.5976 58.2006 20.6059 57.9445 20.6237C57.4487 20.6583 56.959 20.4934 56.5848 20.166C56.2105 19.8386 55.9821 19.3754 55.9503 18.8792C55.4097 10.4518 48.3641 3.85038 39.9103 3.85038C34.241 3.85038 29.0988 6.74835 26.1549 11.6024C25.8569 12.0938 25.3492 12.4207 24.7785 12.4889C24.2081 12.5562 23.6376 12.3587 23.2323 11.9511C22.2565 10.9699 20.9574 10.4296 19.5744 10.4296Z"/>
</symbol>
<symbol id="icon-cloud-rain" viewBox="0 0 72 64">
    <path d="M58.7484 43.6372L56.7707 43.6365L13.7409 43.6202C6.5577 43.6202 0.713684 37.7601 0.713684 30.5568C0.713684 24.3387 5.0089 19.1408 10.8562 17.8189C10.7612 17.2959 10.7134 16.7622 10.7134 16.2198C10.7134 11.3142 14.7043 7.32321 19.6099 7.32321C21.2395 7.32321 22.8011 7.75788 24.1636 8.57274C27.8975 3.63502 33.6586 0.743073 39.9459 0.743073C49.7719 0.743073 58.0544 7.97987 59.5247 17.5167C66.3267 17.9742 71.7203 23.6521 71.7203 30.5658C71.7203 37.7031 65.9097 43.5669 58.7675 43.637C58.7612 43.6372 58.7548 43.6372 58.7484 43.6372ZM56.7722 39.8993L58.7401 39.9C63.8376 39.8449 67.9831 35.6595 67.9831 30.5658C67.9831 25.4148 63.7905 21.2242 58.637 21.2242C58.4168 21.2242 58.1814 21.2385 57.9801 21.2525C57.4847 21.2873 56.9947 21.1223 56.6204 20.7948C56.2461 20.4673 56.0177 20.0042 55.9859 19.508C55.4454 11.0812 48.3997 4.48026 39.9459 4.48026C34.2769 4.48026 29.1347 7.3785 26.1904 12.2329C25.8925 12.7243 25.3848 13.0513 24.8141 13.1194C24.2432 13.1867 23.6731 12.9892 23.2678 12.5816C22.2922 11.6006 20.9931 11.0604 19.6099 11.0604C16.7651 11.0604 14.4506 13.3749 14.4506 16.2198C14.4506 17.0315 14.6348 17.8094 14.9981 18.532C15.2834 19.0996 15.2609 19.7732 14.9383 20.3204C14.6157 20.8676 14.0371 21.2134 13.4023 21.2385C8.38286 21.4367 4.45087 25.5298 4.45087 30.5568C4.45087 35.6993 8.61835 39.883 13.7409 39.883H15.6624L56.7722 39.8993Z"/>
    <path d="M29.6691 63.6029C29.1905 63.6029 28.7121 63.4202 28.3471 63.0549C27.6177 62.3248 27.6184 61.1416 28.3485 60.4124L33.0278 55.7378C33.758 55.0085 34.9411 55.009 35.6704 55.7391C36.3998 56.4692 36.3991 57.6524 35.669 58.3816L30.9897 63.0562C30.6249 63.4206 30.1469 63.6029 29.6691 63.6029Z"/>
    <path d="M13.4123 52.9519C12.9337 52.9519 12.4553 52.7693 12.0903 52.4039C11.3609 51.6738 11.3616 50.4908 12.0917 49.7614L15.0426 46.8135C15.7727 46.0841 16.9558 46.0847 17.6852 46.8148C18.4145 47.5449 18.4139 48.7279 17.6838 49.4573L14.7329 52.4052C14.3681 52.7696 13.8902 52.9519 13.4123 52.9519Z"/>
    <path d="M39.3857 52.9519C38.9072 52.9519 38.4287 52.7693 38.0638 52.4039C37.3344 51.6738 37.335 50.4908 38.0651 49.7614L41.016 46.8135C41.7461 46.0841 42.9292 46.0847 43.6586 46.8148C44.388 47.5449 44.3873 48.7279 43.6572 49.4573L40.7064 52.4052C40.3416 52.7696 39.8637 52.9519 39.3857 52.9519Z"/>
    <path d="M47.7944 57.6539C47.3158 57.6539 46.8372 57.4712 46.4723 57.1057C45.743 56.3756 45.7438 55.1924 46.474 54.4632L54.1338 46.8133C54.864 46.0839 56.0471 46.0846 56.7764 46.8149C57.5057 47.545 57.5048 48.7282 56.7746 49.4574L49.1149 57.1073C48.7501 57.4718 48.2723 57.6539 47.7944 57.6539Z"/>
    <path d="M19.5787 59.7093C19.1001 59.7093 18.6217 59.5267 18.2567 59.1614C17.5273 58.4313 17.528 57.2482 18.2581 56.5189L27.9733 46.8135C28.7034 46.0841 29.8865 46.0847 30.6159 46.8148C31.3453 47.5449 31.3446 48.7279 30.6145 49.4573L20.8993 59.1626C20.5345 59.527 20.0565 59.7093 19.5787 59.7093Z"/>
</symbol>
<symbol id="icon-cloud-rain-storm" viewBox="0 0 72 64">
    <path d="M58.7129 43.6372L56.7351 43.6365C55.7032 43.6361 54.8669 42.7992 54.8673 41.7671C54.8676 40.7354 55.7042 39.8993 56.7359 39.8993H56.7366L58.7046 39.9C63.802 39.8449 67.9475 35.6595 67.9475 30.5658C67.9475 25.4148 63.7549 21.2242 58.6015 21.2242C58.3812 21.2242 58.1458 21.2385 57.9445 21.2525C57.4487 21.2873 56.959 21.1223 56.5848 20.7948C56.2105 20.4673 55.9821 20.0042 55.9503 19.508C55.4098 11.0812 48.3641 4.48026 39.9103 4.48026C34.2413 4.48026 29.0991 7.3785 26.1549 12.2329C25.8569 12.7243 25.3492 13.0513 24.7785 13.1194C24.2081 13.1867 23.6376 12.9892 23.2323 12.5816C22.2566 11.6006 20.9576 11.0604 19.5744 11.0604C16.7295 11.0604 14.415 13.3749 14.415 16.2198C14.415 17.0315 14.5992 17.8094 14.9626 18.532C15.2479 19.0996 15.2253 19.7732 14.9027 20.3204C14.5801 20.8676 14.0015 21.2134 13.3668 21.2385C8.34728 21.4367 4.41529 25.5298 4.41529 30.5568C4.41529 35.6993 8.58277 39.883 13.7053 39.883H15.6269C16.6589 39.883 17.4955 40.7197 17.4955 41.7516C17.4955 42.7836 16.6589 43.6202 15.6269 43.6202H13.7053C6.52211 43.6202 0.678101 37.7601 0.678101 30.5568C0.678101 24.3387 4.97332 19.1408 10.8206 17.8189C10.7256 17.2959 10.6778 16.7622 10.6778 16.2198C10.6778 11.3142 14.6688 7.32321 19.5744 7.32321C21.2039 7.32321 22.7655 7.75788 24.128 8.57274C27.8619 3.63502 33.623 0.743073 39.9103 0.743073C49.7363 0.743073 58.0188 7.97987 59.4891 17.5167C66.2912 17.9742 71.6847 23.6521 71.6847 30.5658C71.6847 37.7031 65.8741 43.5669 58.7319 43.637C58.7256 43.6372 58.7192 43.6372 58.7129 43.6372Z"/>
    <path d="M18.6229 61.2009C18.145 61.2009 17.6673 61.0188 17.3025 60.6546C16.5722 59.9254 16.5714 58.7422 17.3006 58.0119L25.3277 49.9735H20.4915C19.7269 49.9735 19.0395 49.5078 18.756 48.7976C18.4726 48.0875 18.6503 47.2764 19.2047 46.75L30.9769 35.5703C31.7252 34.8597 32.9079 34.8898 33.6185 35.6386C34.3292 36.3867 34.2987 37.5696 33.5504 38.2801L25.1726 46.2363H29.8344C30.59 46.2363 31.2712 46.6912 31.5605 47.3892C31.8499 48.0872 31.6905 48.8906 31.1567 49.4253L19.9451 60.6527C19.5802 61.0181 19.1015 61.2009 18.6229 61.2009Z"/>
    <path d="M37.6685 54.6337C37.1899 54.6337 36.7114 54.451 36.3465 54.0857C35.6171 53.3556 35.6178 52.1726 36.3479 51.4432L44.3657 43.4334H39.5371C38.7733 43.4334 38.0864 42.9686 37.8025 42.2597C37.5185 41.5508 37.6945 40.7402 38.247 40.213L50.0192 28.9788C50.7658 28.2664 51.9485 28.2939 52.661 29.0406C53.3735 29.7872 53.3459 30.9699 52.5993 31.6824L44.2017 39.6962H48.88C49.636 39.6962 50.3174 40.1517 50.6066 40.8502C50.8957 41.5486 50.7355 42.3526 50.2006 42.8867L38.9891 54.087C38.6243 54.4514 38.1464 54.6337 37.6685 54.6337Z"/>
    <path d="M28.1386 63.6029C27.6601 63.6029 27.1816 63.4202 26.8166 63.0549C26.0873 62.3248 26.0879 61.1416 26.818 60.4124L31.4973 55.7378C32.2274 55.0085 33.4106 55.009 34.1399 55.7391C34.8693 56.4692 34.8687 57.6524 34.1386 58.3816L29.4592 63.0562C29.0944 63.4206 28.6164 63.6029 28.1386 63.6029Z"/>
    <path d="M11.1344 57.4365C10.6558 57.4365 10.1774 57.2539 9.81243 56.8885C9.08305 56.1584 9.08369 54.9754 9.8138 54.246L12.7647 51.2981C13.4948 50.5689 14.6779 50.5694 15.4073 51.2994C16.1366 52.0295 16.136 53.2125 15.4059 53.9419L12.455 56.8898C12.0902 57.2542 11.6123 57.4365 11.1344 57.4365Z"/>
    <path d="M44.5823 60.0526C44.1037 60.0526 43.6253 59.8699 43.2603 59.5046C42.5309 58.7745 42.5316 57.5915 43.2617 56.8621L52.9769 47.1567C53.707 46.4273 54.8901 46.4279 55.6195 47.158C56.3489 47.8881 56.3482 49.0711 55.6181 49.8005L45.9029 59.5059C45.5381 59.8703 45.0601 60.0526 44.5823 60.0526Z"/>
</symbol>
<symbol id="icon-cloud-shtil" viewBox="0 0 72 60">
    <path d="M58.7484 43.8844L56.7707 43.8836L13.7409 43.8674C6.5577 43.8674 0.713684 38.0072 0.713684 30.804C0.713684 24.586 5.0089 19.3881 10.8562 18.0662C10.7611 17.5432 10.7134 17.0092 10.7134 16.4669C10.7134 11.5613 14.7043 7.57046 19.6099 7.57046C21.2394 7.57046 22.8012 8.00513 24.1636 8.81991C27.8975 3.88218 33.6586 0.990234 39.9459 0.990234C49.7719 0.990234 58.0544 8.22703 59.5247 17.764C66.3267 18.2215 71.7203 23.8993 71.7203 30.8129C71.7203 37.9503 65.9097 43.8141 58.7675 43.8842C58.7612 43.8844 58.7548 43.8844 58.7484 43.8844ZM56.7722 40.1464L58.7401 40.1472C63.8376 40.0921 67.9831 35.9067 67.9831 30.8129C67.9831 25.6621 63.7905 21.4714 58.637 21.4714C58.4156 21.4714 58.1807 21.4857 57.9801 21.4995C57.4847 21.5357 56.9947 21.3694 56.6204 21.0419C56.2461 20.7145 56.0177 20.2514 55.9859 19.7552C55.4454 11.3285 48.3997 4.72743 39.9459 4.72743C34.2769 4.72743 29.1347 7.62557 26.1904 12.4801C25.8925 12.9715 25.3848 13.2985 24.8141 13.3666C24.2435 13.4339 23.673 13.2363 23.2678 12.8288C22.2923 11.8478 20.9932 11.3077 19.6099 11.3077C16.7651 11.3077 14.4506 13.6221 14.4506 16.4669C14.4506 17.2788 14.6348 18.0567 14.998 18.7791C15.2834 19.3466 15.2609 20.0203 14.9383 20.5676C14.6157 21.1147 14.0371 21.4607 13.4023 21.4857C8.38286 21.6838 4.45087 25.777 4.45087 30.804C4.45087 35.9465 8.61835 40.1302 13.7409 40.1302H15.6624L56.7722 40.1464Z"/>
    <path d="M54.4591 59.7504C54.4587 59.7504 54.4583 59.7504 54.4579 59.7504L43.9237 59.746C42.8917 59.7452 42.0557 58.9104 42.0563 57.8783C42.057 56.8468 42.8936 56.0132 43.9249 56.0132C43.9254 56.0132 43.9258 56.0132 43.9262 56.0132L54.4604 56.0192C55.4923 56.0199 56.3284 56.854 56.3277 57.8861C56.3271 58.9176 55.4905 59.7504 54.4591 59.7504Z"/>
    <path d="M36.6374 59.7504H36.6367L18.0599 59.746C17.028 59.7456 16.1917 58.911 16.192 57.8789C16.1924 56.8471 17.029 56.0132 18.0606 56.0132H18.0613L36.6382 56.0192C37.6701 56.0195 38.5064 56.8534 38.506 57.8855C38.5057 58.9173 37.6691 59.7504 36.6374 59.7504Z"/>
    <path d="M58.8036 51.9023H58.8031L34.5971 51.8979C33.5651 51.8975 32.7288 51.0629 32.7291 50.0309C32.7293 48.9992 33.5659 48.1651 34.5977 48.1651H34.5982L58.8042 48.1711C59.8362 48.1714 60.6725 49.0053 60.6722 50.0372C60.672 51.069 59.8354 51.9023 58.8036 51.9023Z"/>
    <path d="M27.5981 51.9023C27.5981 51.9023 27.5976 51.9023 27.5971 51.9023L14.229 51.8979C13.1971 51.8973 12.3608 51.0625 12.3614 50.0306C12.3619 48.9988 13.1985 48.1651 14.23 48.1651C14.23 48.1651 14.2305 48.1651 14.231 48.1651L27.5991 48.1711C28.631 48.1716 29.4673 49.0057 29.4667 50.0376C29.4662 51.0693 28.6296 51.9023 27.5981 51.9023Z"/>
</symbol>
<symbol id="icon-cloud-snow" viewBox="0 0 72 73">
    <path d="M58.6525 43.5263L56.6747 43.5256L13.645 43.5094C6.46181 43.5094 0.617798 37.6492 0.617798 30.4459C0.617798 24.2279 4.91301 19.0299 10.7603 17.708C10.6653 17.1851 10.6175 16.6513 10.6175 16.109C10.6175 11.2034 14.6084 7.21234 19.5141 7.21234C21.1436 7.21234 22.7052 7.64701 24.0677 8.46187C27.8016 3.52415 33.5627 0.632202 39.85 0.632202C49.6759 0.632202 57.9585 7.869 59.4289 17.4059C66.231 17.8633 71.6244 23.5412 71.6244 30.4549C71.6244 37.5923 65.8137 43.4561 58.6716 43.5261C58.6652 43.5263 58.6589 43.5263 58.6525 43.5263ZM56.6762 39.7884L58.6441 39.7891C63.7416 39.734 67.8872 35.5486 67.8872 30.4549C67.8872 25.304 63.6946 21.1133 58.5411 21.1133C58.3209 21.1133 58.0855 21.1276 57.8844 21.1416C57.3906 21.1756 56.899 21.0114 56.5246 20.6839C56.1503 20.3565 55.9218 19.8933 55.8901 19.3971C55.3494 10.9703 48.3038 4.36939 39.85 4.36939C34.181 4.36939 29.0388 7.26763 26.0946 12.1221C25.7966 12.6135 25.2889 12.9404 24.7182 13.0085C24.1479 13.0762 23.5772 12.8783 23.172 12.4708C22.1963 11.4898 20.8973 10.9495 19.5141 10.9495C16.6692 10.9495 14.3547 13.264 14.3547 16.109C14.3547 16.9206 14.5389 17.6986 14.9022 18.4212C15.1876 18.9887 15.165 19.6623 14.8424 20.2096C14.5198 20.7567 13.9412 21.1025 13.3065 21.1276C8.28698 21.3258 4.35499 25.4189 4.35499 30.4459C4.35499 35.5884 8.52247 39.7722 13.645 39.7722H15.5666L56.6762 39.7884Z"/>
    <path d="M18.183 68.7454C17.7045 68.7454 17.226 68.5628 16.8611 68.1974C16.1317 67.4673 16.1323 66.2843 16.8624 65.5549L28.4297 53.9994C29.1598 53.2702 30.3429 53.2706 31.0723 54.0007C31.8016 54.7308 31.801 55.9138 31.0709 56.6432L19.5037 68.1987C19.1389 68.5631 18.661 68.7454 18.183 68.7454Z"/>
    <path d="M29.7445 68.7512C29.2659 68.7512 28.7874 68.5686 28.4225 68.2032L16.8669 56.636C16.1376 55.9059 16.1382 54.7229 16.8683 53.9935C17.5985 53.2643 18.7816 53.2647 19.5109 53.9948L31.0664 65.562C31.7958 66.2921 31.7952 67.4752 31.0651 68.2045C30.7003 68.5689 30.2224 68.7512 29.7445 68.7512Z"/>
    <path d="M33.3097 62.9427H33.3088L14.6228 62.9482C13.5908 62.9476 12.7546 62.1079 12.7551 61.0759C12.7557 60.0442 13.5922 59.2055 14.6237 59.2055H14.6246L33.3106 59.2249C34.3426 59.2255 35.1788 60.0528 35.1783 61.0847C35.1777 62.1163 34.3411 62.9427 33.3097 62.9427Z"/>
    <path d="M23.9619 72.2857H23.961C22.929 72.2857 22.0928 71.4605 22.0933 70.4286L22.1028 51.7364C22.1034 50.7047 22.9399 49.8625 23.9714 49.8625H23.9723C25.0043 49.8625 25.8406 50.7125 25.84 51.7445L25.8305 70.4242C25.83 71.456 24.9934 72.2857 23.9619 72.2857Z"/>
    <path d="M44.1021 60.4639C43.4583 60.4639 42.832 60.1311 42.4851 59.5346C41.9661 58.6426 42.2685 57.4988 43.1606 56.9798L54.4667 50.4025C55.3589 49.8828 56.5027 50.1859 57.0215 51.0781C57.5404 51.97 57.2381 53.1138 56.3459 53.6328L45.0398 60.2101C44.7442 60.3822 44.421 60.4639 44.1021 60.4639Z"/>
    <path d="M55.4998 60.2949C55.1987 60.2949 54.8934 60.222 54.61 60.0683L43.1138 53.8289C42.2069 53.3366 41.8706 52.2023 42.3629 51.2952C42.855 50.3883 43.9892 50.0522 44.8966 50.5443L56.3929 56.7837C57.2998 57.276 57.6361 58.4103 57.1438 59.3174C56.8053 59.9411 56.163 60.2949 55.4998 60.2949Z"/>
    <path d="M49.75 63.6902H49.7491C48.717 63.6902 47.8809 62.8101 47.8814 61.7781L47.888 48.9226C47.8885 47.8909 48.725 47.0597 49.7566 47.0597H49.7575C50.7896 47.0597 51.6257 47.8712 51.6252 48.9032L51.6186 61.793C51.6181 62.8247 50.7816 63.6902 49.75 63.6902Z"/>
</symbol>
<symbol id="icon-cloud-snow-rain" viewBox="0 0 72 66">
    <path d="M22.1129 50.5447C21.4693 50.5447 20.8429 50.2119 20.496 49.6153C19.977 48.7234 20.2795 47.5796 21.1715 47.0606L32.4777 40.4833C33.3695 39.964 34.5136 40.2667 35.0325 41.1589C35.5514 42.0508 35.249 43.1946 34.3569 43.7136L23.0507 50.2909C22.7552 50.463 22.4318 50.5447 22.1129 50.5447Z"/>
    <path d="M33.5107 50.3757C33.2096 50.3757 32.9042 50.3027 32.621 50.1491L21.1248 43.9097C20.2178 43.4174 19.8816 42.2831 20.3738 41.376C20.8662 40.469 22.0005 40.1331 22.9075 40.6251L34.4036 46.8644C35.3107 47.3568 35.6469 48.4911 35.1546 49.3982C34.816 50.0219 34.1738 50.3757 33.5107 50.3757Z"/>
    <path d="M27.7609 53.771H27.76C26.7279 53.771 25.8917 52.8909 25.8923 51.8589L25.8988 39.0034C25.8994 37.9717 26.736 37.1405 27.7674 37.1405H27.7684C28.8004 37.1405 29.6366 37.9521 29.636 38.984L29.6295 51.8738C29.6289 52.9055 28.7923 53.771 27.7609 53.771Z"/>
    <path d="M39.8645 44.1915C39.2209 44.1915 38.5945 43.8587 38.2477 43.2621C37.7287 42.3702 38.0311 41.2264 38.9232 40.7074L50.2294 34.1301C51.1211 33.6108 52.2651 33.9133 52.7841 34.8056C53.3031 35.6976 53.0006 36.8414 52.1086 37.3604L40.8024 43.9377C40.5068 44.1098 40.1835 44.1915 39.8645 44.1915Z"/>
    <path d="M51.2623 44.0225C50.9612 44.0225 50.6558 43.9495 50.3726 43.7958L38.8765 37.5565C37.9695 37.0642 37.6332 35.9299 38.1255 35.0228C38.6178 34.1158 39.7521 33.7797 40.6591 34.2718L52.1553 40.5112C53.0623 41.0035 53.3985 42.1378 52.9063 43.0449C52.5677 43.6687 51.9255 44.0225 51.2623 44.0225Z"/>
    <path d="M45.5125 47.4177H45.5116C44.4796 47.4177 43.6434 46.5376 43.6439 45.5057L43.6505 32.6501C43.651 31.6184 44.4876 30.7872 45.5191 30.7872H45.52C46.552 30.7872 47.3882 31.5988 47.3877 32.6307L47.3811 45.5205C47.3806 46.5522 46.544 47.4177 45.5125 47.4177Z"/>
    <path d="M24.5883 65.9055C24.1098 65.9055 23.6313 65.7228 23.2663 65.3575C22.537 64.6274 22.5376 63.4442 23.2677 62.715L27.947 58.0404C28.6772 57.3111 29.8603 57.3116 30.5896 58.0417C31.319 58.7718 31.3184 59.955 30.5883 60.6842L25.9089 65.3588C25.5442 65.7232 25.0661 65.9055 24.5883 65.9055Z"/>
    <path d="M15.4322 59.7391C14.9536 59.7391 14.4752 59.5565 14.1102 59.1912C13.3808 58.4611 13.3815 57.278 14.1116 56.5487L17.0625 53.6007C17.7926 52.8715 18.9757 52.8719 19.7051 53.602C20.4344 54.3321 20.4338 55.5151 19.7037 56.2445L16.7528 59.1924C16.388 59.5569 15.9101 59.7391 15.4322 59.7391Z"/>
    <path d="M36.921 56.9362C36.4425 56.9362 35.964 56.7536 35.599 56.3882C34.8697 55.6581 34.8703 54.4751 35.6004 53.7458L38.5513 50.7978C39.2815 50.0686 40.4646 50.069 41.1939 50.7991C41.9233 51.5292 41.9226 52.7122 41.1925 53.4416L38.2416 56.3895C37.8769 56.7539 37.3989 56.9362 36.921 56.9362Z"/>
    <path d="M44.5823 60.2997C44.1037 60.2997 43.6253 60.1171 43.2603 59.7517C42.5309 59.0216 42.5316 57.8386 43.2617 57.1093L52.9769 47.4039C53.707 46.6745 54.8901 46.675 55.6195 47.4052C56.3489 48.1353 56.3482 49.3183 55.6181 50.0476L45.9029 59.753C45.5381 60.1174 45.0601 60.2997 44.5823 60.2997Z"/>
    <path d="M58.8063 43.8844L56.922 43.8836C55.89 43.8833 55.0538 43.0462 55.0541 42.0143C55.0545 40.9826 55.8911 40.1464 56.9227 40.1464H56.9235L58.798 40.1472C61.2671 40.1203 63.5788 39.1408 65.3079 37.3881C67.0402 35.6319 67.9943 33.2969 67.9943 30.8129C67.9943 25.6621 63.7911 21.4714 58.6248 21.4714C58.3892 21.4714 58.1304 21.4875 57.9562 21.4995C57.4603 21.5357 56.9708 21.3694 56.5965 21.0419C56.2222 20.7145 55.9938 20.2514 55.962 19.7552C55.4215 11.3285 48.3733 4.72743 39.9161 4.72743C34.2453 4.72743 29.102 7.62557 26.1578 12.4801C25.8598 12.9715 25.3521 13.2985 24.7814 13.3666C24.2107 13.4339 23.6405 13.2363 23.2352 12.8288C22.2597 11.8478 20.96 11.3077 19.5758 11.3077C16.7305 11.3077 14.4158 13.6221 14.4158 16.4669C14.4158 17.2791 14.5998 18.057 14.9628 18.7791C15.2482 19.3466 15.2257 20.0203 14.9031 20.5676C14.5804 21.1147 14.0019 21.4607 13.3671 21.4857C8.34756 21.6838 4.41548 25.777 4.41548 30.804C4.41548 35.9465 8.58286 40.1302 13.7054 40.1302H16.0006C17.0326 40.1302 17.8692 40.9669 17.8692 41.9988C17.8692 43.0307 17.0326 43.8674 16.0006 43.8674H13.7054C6.52221 43.8674 0.678284 38.0072 0.678284 30.804C0.678284 24.586 4.97386 19.3879 10.8212 18.066C10.7263 17.5432 10.6786 17.0092 10.6786 16.4669C10.6786 11.5613 14.6698 7.57046 19.5758 7.57046C21.2061 7.57046 22.7682 8.00513 24.1309 8.81991C27.865 3.88218 33.6272 0.990234 39.9161 0.990234C49.7446 0.990234 58.0293 8.22721 59.5006 17.7631C66.321 18.2142 71.7315 23.8949 71.7315 30.8129C71.7315 34.2854 70.3951 37.5525 67.9684 40.0125C65.5391 42.4751 62.292 43.8502 58.8254 43.8842C58.8191 43.8844 58.8127 43.8844 58.8063 43.8844Z"/>
</symbol>
<symbol id="icon-moon" viewBox="0 0 42 46">
    <path d="M23.1602 45.0972C10.7961 45.0972 0.737061 35.0382 0.737061 22.6741C0.737061 10.3099 10.7961 0.250916 23.1602 0.250916C23.7592 0.250916 24.3729 0.275916 24.9841 0.325185C25.6525 0.379199 26.2407 0.787041 26.5255 1.39397C26.8104 2.0009 26.7481 2.71403 26.3626 3.26257C24.1453 6.416 22.9733 10.1275 22.9733 13.9955C22.9733 18.7214 24.7415 23.2312 27.9521 26.6945C31.1455 30.1393 35.4725 32.2435 40.1358 32.6194C40.804 32.6732 41.3923 33.0811 41.6772 33.6882C41.962 34.2951 41.8998 35.0083 41.5142 35.5568C37.3139 41.5306 30.4527 45.0972 23.1602 45.0972ZM21.5534 4.05654C11.9995 4.87441 4.47425 12.9121 4.47425 22.6741C4.47425 32.9776 12.8567 41.36 23.1602 41.36C28.185 41.36 32.9643 39.3277 36.4482 35.8088C32.1625 34.7893 28.2569 32.5203 25.2115 29.2353C21.3582 25.0788 19.2362 19.6666 19.2362 13.9955C19.2362 10.509 20.0299 7.12804 21.5534 4.05654Z"/>
</symbol>
<symbol id="icon-moon-cloud" viewBox="0 0 83 68">
    <path d="M13.1011 67.9482C5.9123 67.9008 0.0738525 62.0325 0.0738525 54.8668C0.0738525 48.6399 4.36907 43.4348 10.2165 42.1114C10.1214 41.5882 10.0736 41.0544 10.0736 40.5119C10.0736 35.6064 14.0646 31.6155 18.97 31.6155C20.5996 31.6155 22.1612 32.0502 23.5238 32.8652C27.2575 27.9278 33.0186 25.0363 39.306 25.0363C49.1325 25.0363 57.4156 32.2749 58.8853 41.8133C65.6867 42.2715 71.0805 47.9512 71.0805 54.8668C71.0805 62.009 65.27 67.8768 58.1277 67.9472L13.1011 67.9482ZM18.97 35.3527C16.1252 35.3527 13.8108 37.6671 13.8108 40.5119C13.8108 41.3234 13.9951 42.1013 14.3584 42.8241C14.6436 43.3916 14.6212 44.0653 14.2985 44.6125C13.9759 45.1597 13.3973 45.5055 12.7626 45.5306C7.74312 45.7288 3.81104 49.8297 3.81104 54.8668C3.81104 59.9854 7.984 64.1772 13.1133 64.211L58.1092 64.2101C63.1926 64.1599 67.3433 59.9685 67.3433 54.8668C67.3433 49.7133 63.1506 45.5206 57.9972 45.5206C57.8052 45.5206 57.5965 45.5289 57.3405 45.5467C56.8463 45.5809 56.3549 45.4165 55.9806 45.0891C55.6064 44.7616 55.3779 44.2986 55.3461 43.8022C54.8055 35.3748 47.7597 28.7734 39.306 28.7734C33.6369 28.7734 28.4946 31.6714 25.5504 36.5256C25.2524 37.017 24.7448 37.3439 24.1742 37.412C23.6034 37.4798 23.0333 37.2818 22.6278 36.8742C21.6521 35.893 20.353 35.3527 18.97 35.3527Z"/>
    <path d="M69.0232 44.622C68.1761 44.622 67.4089 44.0421 67.206 43.1818C66.9692 42.1774 67.5914 41.1712 68.596 40.9343C72.0226 40.1263 75.1277 38.3675 77.5813 35.8819C73.2943 34.8627 69.3878 32.5935 66.3416 29.3077C62.4884 25.1511 60.3663 19.7389 60.3663 14.0679C60.3663 10.5814 61.1603 7.20013 62.6838 4.12853C58.3851 4.49349 54.374 6.31939 51.2516 9.3616C47.7495 12.7736 45.7466 17.3399 45.6117 22.2193C45.5831 23.251 44.7263 24.0712 43.6922 24.0356C42.6606 24.0071 41.8475 23.1477 41.876 22.116C42.0378 16.2593 44.4413 10.7791 48.6436 6.6848C52.854 2.58256 58.4109 0.323364 64.2904 0.323364C64.8894 0.323364 65.5031 0.348273 66.1139 0.397451C66.7823 0.451192 67.3706 0.859034 67.6557 1.46605C67.9405 2.07308 67.8783 2.78621 67.4927 3.33474C65.2754 6.48845 64.1035 10.1998 64.1035 14.0679C64.1035 18.7937 65.8717 23.3036 69.0823 26.7669C72.2759 30.2118 76.6026 32.3159 81.2659 32.6918C81.9342 32.7457 82.5225 33.1535 82.8073 33.7605C83.0922 34.3675 83.03 35.0806 82.6444 35.6291C79.4745 40.1375 74.7899 43.3134 69.4536 44.5717C69.3095 44.6057 69.1651 44.622 69.0232 44.622Z"/>
</symbol>
<symbol id="icon-moon-cloud-rain" viewBox="0 0 78 82">
    <path d="M13.1351 62.6388C6.43591 62.5946 0.995636 57.1264 0.995636 50.4493C0.995636 44.6959 4.93118 39.8786 10.3096 38.5955C10.2366 38.15 10.1999 37.6965 10.1999 37.2364C10.1999 32.6391 13.94 28.899 18.5373 28.899C20.019 28.899 21.4409 29.2825 22.6905 30.003C26.1573 25.4854 31.466 22.8431 37.2557 22.8431C46.3341 22.8431 53.9928 29.501 55.4059 38.2944C61.6876 38.7789 66.651 44.0453 66.651 50.4493C66.651 57.1045 61.2367 62.5722 54.5816 62.6379L13.1351 62.6388ZM18.5373 32.6361C16.0008 32.6361 13.9371 34.6998 13.9371 37.2364C13.9371 37.9599 14.1014 38.6535 14.4253 39.2979C14.7107 39.8655 14.688 40.5391 14.3654 41.0862C14.0428 41.6335 13.4641 41.9792 12.8295 42.0043C8.28936 42.1836 4.73283 45.8931 4.73283 50.4493C4.73283 55.0794 8.50761 58.8709 13.1475 58.9016L54.5632 58.9007C59.1595 58.8554 62.9138 55.064 62.9138 50.4493C62.9138 45.7877 59.1214 41.9953 54.4599 41.9953C54.2866 41.9953 54.0977 42.0028 53.8656 42.0189C53.3676 42.0536 52.88 41.8885 52.5059 41.5612C52.1316 41.2338 51.9034 40.7706 51.8714 40.2744C51.3787 32.5955 44.9587 26.5803 37.2557 26.5803C32.0899 26.5803 27.4041 29.2209 24.7213 33.6442C24.4233 34.1356 23.9157 34.4625 23.3451 34.5306C22.7746 34.5982 22.2042 34.4004 21.7987 33.9928C20.9288 33.1179 19.7705 32.6361 18.5373 32.6361Z"/>
    <path d="M65.863 40.8265C65.0657 40.8265 64.3274 40.3124 64.0788 39.511C63.773 38.5253 64.3243 37.4784 65.3099 37.1727C67.8921 36.3718 70.2585 34.9458 72.1897 33.055C68.3182 32.0811 64.7933 30.0034 62.0316 27.0243C58.4594 23.171 56.4921 18.1534 56.4921 12.8958C56.4921 9.75361 57.1877 6.70382 58.524 3.92009C54.8335 4.29271 51.3709 5.85347 48.6301 8.408C45.4805 11.3436 43.5696 15.3155 43.2497 19.5922C43.1728 20.6213 42.2736 21.3947 41.2469 21.3162C40.2179 21.2392 39.4461 20.3426 39.5231 19.3134C39.9132 14.0965 42.2426 9.25261 46.0819 5.67409C49.9414 2.07704 54.974 0.0960388 60.2526 0.0960388C60.8088 0.0960388 61.3776 0.119123 61.9433 0.164743C62.6115 0.218665 63.1998 0.626508 63.4847 1.23344C63.7695 1.84046 63.7073 2.5535 63.3217 3.10203C61.2986 5.97956 60.2292 9.36621 60.2292 12.8958C60.2292 17.2081 61.8427 21.3235 64.7723 24.4837C67.6863 27.6271 71.6346 29.547 75.8897 29.89C76.5579 29.9439 77.1462 30.3518 77.4311 30.9587C77.7159 31.5657 77.6537 32.2789 77.2681 32.8273C74.6304 36.579 70.7768 39.3899 66.4171 40.7422C66.2328 40.7993 66.0462 40.8265 65.863 40.8265Z"/>
    <path d="M29.9893 81.9809C29.5107 81.9809 29.0322 81.7983 28.6675 81.4329C27.9381 80.7028 27.9386 79.5196 28.6687 78.7904L32.9758 74.4877C33.7059 73.7584 34.8893 73.7589 35.6183 74.489C36.3477 75.2191 36.3471 76.4023 35.617 77.1315L31.3099 81.4342C30.9452 81.7986 30.4673 81.9809 29.9893 81.9809Z"/>
    <path d="M15.0257 72.1772C14.547 72.1772 14.0686 71.9946 13.7036 71.6292C12.9744 70.8991 12.975 69.7159 13.7051 68.9866L16.4213 66.2733C17.1514 65.5439 18.3346 65.5446 19.064 66.2747C19.7931 67.0048 19.7926 68.188 19.0625 68.9174L16.3463 71.6307C15.9815 71.9951 15.5036 72.1772 15.0257 72.1772Z"/>
    <path d="M38.9331 72.1772C38.4544 72.1772 37.9761 71.9945 37.6112 71.6292C36.8818 70.8991 36.8824 69.7161 37.6125 68.9867L40.3285 66.2734C41.0586 65.544 42.2416 65.5446 42.971 66.2747C43.7004 67.0048 43.6998 68.1878 42.9697 68.9172L40.2537 71.6305C39.8889 71.9949 39.411 72.1772 38.9331 72.1772Z"/>
    <path d="M46.6728 76.5053C46.1941 76.5053 45.7155 76.3226 45.3507 75.9571C44.6213 75.227 44.622 74.0438 45.3523 73.3146L52.4028 66.2732C53.1331 65.5437 54.3165 65.5446 55.0453 66.2749C55.7747 67.005 55.7739 68.1882 55.0437 68.9174L47.9932 75.9587C47.6284 76.3231 47.1505 76.5053 46.6728 76.5053Z"/>
    <path d="M20.7015 78.3972C20.2228 78.3972 19.7444 78.2145 19.3796 77.8492C18.6502 77.1191 18.6508 75.9359 19.3809 75.2067L28.3233 66.2734C29.0534 65.544 30.2368 65.5446 30.9658 66.2747C31.6952 67.0048 31.6946 68.188 30.9645 68.9172L22.0221 77.8505C21.6573 78.2149 21.1794 78.3972 20.7015 78.3972Z"/>
</symbol>
<symbol id="icon-sun" viewBox="0 0 72 72">
    <path d="M36.2353 54.3914C25.9318 54.3914 17.5493 46.0089 17.5493 35.7054C17.5493 25.402 25.9318 17.0195 36.2353 17.0195C46.5387 17.0195 54.9212 25.402 54.9212 35.7054C54.9212 46.0089 46.5387 54.3914 36.2353 54.3914ZM36.2353 20.7567C27.9925 20.7567 21.2865 27.4626 21.2865 35.7054C21.2865 43.9482 27.9925 50.6542 36.2353 50.6542C44.4781 50.6542 51.184 43.9482 51.184 35.7054C51.184 27.4626 44.4781 20.7567 36.2353 20.7567Z"/>
    <path d="M36.217 14.0114C35.185 14.0114 34.3484 13.1749 34.3484 12.1428V2.05243C34.3484 1.02042 35.185 0.183838 36.217 0.183838C37.249 0.183838 38.0856 1.02042 38.0856 2.05243V12.1428C38.0856 13.1749 37.249 14.0114 36.217 14.0114Z"/>
    <path d="M36.217 71.1905C35.185 71.1905 34.3484 70.3539 34.3484 69.3219V59.2314C34.3484 58.1994 35.185 57.3629 36.217 57.3629C37.249 57.3629 38.0856 58.1994 38.0856 59.2314V69.3219C38.0856 70.3539 37.249 71.1905 36.217 71.1905Z"/>
    <path d="M12.6727 37.5557H2.58228C1.55026 37.5557 0.713684 36.7192 0.713684 35.6871C0.713684 34.6551 1.55026 33.8185 2.58228 33.8185H12.6727C13.7047 33.8185 14.5413 34.6551 14.5413 35.6871C14.5413 36.7192 13.7047 37.5557 12.6727 37.5557Z"/>
    <path d="M69.8517 37.5557H59.7613C58.7293 37.5557 57.8927 36.7192 57.8927 35.6871C57.8927 34.6551 58.7293 33.8185 59.7613 33.8185H69.8517C70.8837 33.8185 71.7203 34.6551 71.7203 35.6871C71.7203 36.7192 70.8837 37.5557 69.8517 37.5557Z"/>
    <path d="M52.7619 21.0108C52.2838 21.0108 51.8055 20.8284 51.4406 20.4636C50.711 19.7338 50.711 18.5506 51.4406 17.8209L58.679 10.5825C59.4088 9.85272 60.592 9.85272 61.3217 10.5825C62.0514 11.3122 62.0514 12.4954 61.3217 13.2251L54.0833 20.4636C53.7184 20.8284 53.2401 21.0108 52.7619 21.0108Z"/>
    <path d="M12.4336 61.3391C11.9554 61.3391 11.4772 61.1567 11.1123 60.7919C10.3827 60.0621 10.3827 58.8789 11.1123 58.1492L18.3507 50.9108C19.0805 50.181 20.2637 50.181 20.9934 50.9108C21.7231 51.6405 21.7231 52.8237 20.9934 53.5534L13.755 60.7919C13.3901 61.1567 12.9118 61.3391 12.4336 61.3391Z"/>
    <path d="M19.6721 21.0108C19.1939 21.0108 18.7156 20.8284 18.3507 20.4636L11.1123 13.2251C10.3827 12.4954 10.3827 11.3122 11.1123 10.5825C11.842 9.85272 13.0252 9.85272 13.755 10.5825L20.9934 17.8209C21.7231 18.5506 21.7231 19.7338 20.9934 20.4636C20.6285 20.8284 20.1503 21.0108 19.6721 21.0108Z"/>
    <path d="M60.0004 61.3391C59.5222 61.3391 59.0439 61.1567 58.679 60.7919L51.4406 53.5534C50.711 52.8237 50.711 51.6405 51.4406 50.9108C52.1703 50.181 53.3535 50.181 54.0833 50.9108L61.3217 58.1492C62.0514 58.8789 62.0514 60.0621 61.3217 60.7919C60.9568 61.1567 60.4786 61.3391 60.0004 61.3391Z"/>
</symbol>
<symbol id="icon-sun-cloud" viewBox="0 0 87 80">
    <path d="M61.3957 51.0302C60.8523 51.0302 60.3134 50.7943 59.944 50.3395C59.2935 49.5384 59.4156 48.3615 60.2167 47.711C63.7329 44.8557 65.7495 40.6234 65.7495 36.0996C65.7495 27.8568 59.0435 21.1509 50.8007 21.1509C43.1762 21.1509 36.7898 26.8554 35.9451 34.42C35.8306 35.4456 34.9067 36.1837 33.8807 36.0698C32.8552 35.9552 32.1165 35.0309 32.2311 34.0053C33.2872 24.5465 41.2703 17.4137 50.8007 17.4137C61.1043 17.4137 69.4867 25.7962 69.4867 36.0996C69.4867 41.7542 66.9666 47.0439 62.5725 50.6121C62.2261 50.8934 61.8095 51.0302 61.3957 51.0302Z"/>
    <path d="M50.7824 14.4057C49.7505 14.4057 48.9138 13.5691 48.9138 12.5371V2.44666C48.9138 1.41464 49.7505 0.578064 50.7824 0.578064C51.8143 0.578064 52.651 1.41464 52.651 2.44666V12.5371C52.651 13.5691 51.8143 14.4057 50.7824 14.4057Z"/>
    <path d="M27.2381 37.95H17.1477C16.1157 37.95 15.2791 37.1134 15.2791 36.0814C15.2791 35.0493 16.1157 34.2128 17.1477 34.2128H27.2381C28.2701 34.2128 29.1067 35.0493 29.1067 36.0814C29.1067 37.1134 28.2701 37.95 27.2381 37.95Z"/>
    <path d="M84.4171 37.95H74.3267C73.2948 37.95 72.4581 37.1134 72.4581 36.0814C72.4581 35.0493 73.2948 34.2128 74.3267 34.2128H84.4171C85.4491 34.2128 86.2857 35.0493 86.2857 36.0814C86.2857 37.1134 85.4491 37.95 84.4171 37.95Z"/>
    <path d="M67.3273 21.4051C66.849 21.4051 66.3709 21.2227 66.006 20.8578C65.2762 20.1281 65.2762 18.9449 66.006 18.2151L73.2444 10.9767C73.9743 10.2469 75.1572 10.2469 75.8871 10.9767C76.6168 11.7064 76.6168 12.8896 75.8871 13.6194L68.6487 20.8578C68.2837 21.2227 67.8056 21.4051 67.3273 21.4051Z"/>
    <path d="M34.2375 21.4051C33.7593 21.4051 33.281 21.2227 32.9162 20.8578L25.6777 13.6194C24.9481 12.8896 24.9481 11.7064 25.6777 10.9767C26.4075 10.2469 27.5907 10.2469 28.3204 10.9767L35.5588 18.2151C36.2885 18.9449 36.2885 20.1281 35.5588 20.8578C35.194 21.2227 34.7157 21.4051 34.2375 21.4051Z"/>
    <path d="M74.5658 61.7333C74.0875 61.7333 73.6094 61.5509 73.2444 61.1861L66.006 53.9476C65.2762 53.2179 65.2762 52.0347 66.006 51.3049C66.7359 50.5752 67.9187 50.5752 68.6487 51.3049L75.8871 58.5434C76.6168 59.2731 76.6168 60.4563 75.8871 61.1861C75.5221 61.5509 75.044 61.7333 74.5658 61.7333Z"/>
    <path d="M13.4043 79.0591C6.21552 79.0117 0.377075 73.1434 0.377075 65.9777C0.377075 59.7508 4.67238 54.5457 10.5196 53.2222C10.4245 52.6991 10.3768 52.1653 10.3768 51.6228C10.3768 46.7173 14.3677 42.7264 19.2733 42.7264C20.9027 42.7264 22.4645 43.1612 23.827 43.9761C27.5607 39.0387 33.3217 36.1472 39.6093 36.1472C49.4359 36.1472 57.7189 43.3858 59.1886 52.9242C65.99 53.3824 71.3837 59.0621 71.3837 65.9777C71.3837 73.1199 65.5732 78.9877 58.4309 79.0581L13.4043 79.0591ZM19.2733 46.4636C16.4285 46.4636 14.114 48.778 14.114 51.6228C14.114 52.4344 14.2982 53.2124 14.6615 53.935C14.9468 54.5026 14.9243 55.1762 14.6017 55.7234C14.279 56.2706 13.7005 56.6164 13.0657 56.6415C8.04625 56.8397 4.11427 60.9406 4.11427 65.9777C4.11427 71.0963 8.28731 75.2881 13.4166 75.3219L58.4125 75.321C63.4958 75.2708 67.6465 71.0794 67.6465 65.9777C67.6465 60.8242 63.4538 56.6315 58.3004 56.6315C58.1085 56.6315 57.8997 56.6398 57.6437 56.6576C57.1492 56.6915 56.6581 56.5275 56.2838 56.2C55.9096 55.8725 55.6811 55.4095 55.6494 54.9131C55.1087 46.4857 48.0631 39.8843 39.6093 39.8843C33.94 39.8843 28.7978 42.7823 25.8538 47.6364C25.5558 48.1278 25.0482 48.4547 24.4775 48.5229C23.9069 48.5902 23.3365 48.3927 22.9312 47.9851C21.9554 47.0039 20.6564 46.4636 19.2733 46.4636Z"/>
</symbol>
<symbol id="icon-sun-cloud-rain" viewBox="0 0 79 89">
    <path d="M57.0126 43.5938C56.5426 43.5938 56.0734 43.4083 55.7243 43.0404C55.0497 42.3291 55.0793 41.2055 55.7906 40.5308C58.4982 37.9623 59.9894 34.4933 59.9894 30.7627C59.9894 23.3403 53.9508 17.3017 46.5284 17.3017C40.0091 17.3017 34.4384 21.9495 33.2822 28.3531C33.1079 29.3177 32.184 29.9585 31.22 29.7846C30.255 29.6104 29.6142 28.687 29.7884 27.7223C31.2499 19.627 38.2902 13.7514 46.5284 13.7514C55.9084 13.7514 63.5398 21.3826 63.5398 30.7627C63.5398 35.4771 61.6555 39.8609 58.234 43.1065C57.8907 43.4322 57.4511 43.5938 57.0126 43.5938Z"/>
    <path d="M41.2672 12.2626C40.4506 12.2626 39.7156 11.6959 39.5346 10.8654L37.6625 2.28485C37.4534 1.32701 38.0605 0.381124 39.0183 0.172094C39.978 -0.0371199 40.9223 0.570356 41.1311 1.5281L43.0031 10.1087C43.2123 11.0665 42.6052 12.0124 41.6473 12.2214C41.5198 12.2493 41.3924 12.2626 41.2672 12.2626Z"/>
    <path d="M67.3587 28.8514C66.5421 28.8514 65.8071 28.2848 65.6261 27.4543C65.4169 26.4965 66.024 25.5506 66.9819 25.3415L76.1101 23.35C77.0699 23.1408 78.0141 23.7483 78.2228 24.7061C78.432 25.6639 77.8249 26.6098 76.867 26.8188L67.7388 28.8103C67.6113 28.8381 67.4839 28.8514 67.3587 28.8514Z"/>
    <path d="M57.805 15.2579C57.4767 15.2579 57.1446 15.167 56.8477 14.9765C56.0227 14.4469 55.7831 13.3488 56.3127 12.5237L61.3221 4.71875C61.8517 3.89366 62.9497 3.65416 63.775 4.18363C64.6 4.71318 64.8396 5.81135 64.3101 6.63643L59.3006 14.4414C58.9616 14.9697 58.3893 15.2579 57.805 15.2579Z"/>
    <path d="M28.5153 21.648C28.187 21.648 27.8549 21.5571 27.5582 21.3666L19.7532 16.3572C18.928 15.8277 18.6884 14.7295 19.218 13.9044C19.7475 13.0793 20.8457 12.8398 21.6707 13.3693L29.4757 18.3786C30.3009 18.9082 30.5405 20.0064 30.0109 20.8315C29.6719 21.3597 29.0996 21.648 28.5153 21.648Z"/>
    <path d="M71.8175 49.5969C71.4892 49.5969 71.1571 49.506 70.8602 49.3155L63.0554 44.3061C62.2304 43.7766 61.9908 42.6784 62.5203 41.8533C63.0499 41.0282 64.1479 40.7885 64.9732 41.3182L72.7781 46.3276C73.6031 46.8571 73.8427 47.9553 73.3131 48.7804C72.9741 49.3086 72.4018 49.5969 71.8175 49.5969Z"/>
    <path d="M12.6481 69.7654C6.08959 69.7222 0.763367 64.3688 0.763367 57.8317C0.763367 52.1781 4.64453 47.448 9.93992 46.2128C9.862 45.7589 9.82295 45.2963 9.82295 44.8265C9.82295 40.3368 13.4755 36.6842 17.9652 36.6842C19.4313 36.6842 20.8376 37.0689 22.0696 37.7906C25.4692 33.3325 30.6917 30.7235 36.3893 30.7235C45.3108 30.7235 52.8342 37.2785 54.1988 45.9281C60.3728 46.3778 65.2586 51.5448 65.2586 57.8317C65.2586 64.3472 59.9577 69.7002 53.4422 69.7645L12.6481 69.7654ZM17.9652 40.2346C15.4333 40.2346 13.3733 42.2945 13.3733 44.8265C13.3733 45.5489 13.5372 46.2412 13.8605 46.8841C14.1317 47.4234 14.1103 48.0633 13.8038 48.5832C13.4974 49.1031 12.9477 49.4316 12.3446 49.4555C7.84122 49.6333 4.3137 53.3125 4.3137 57.8317C4.3137 62.4239 8.05782 66.1848 12.6598 66.2151L53.4247 66.2142C57.9844 66.1693 61.7082 62.4088 61.7082 57.8317C61.7082 53.2082 57.9466 49.4466 53.3231 49.4466C53.1501 49.4466 52.9629 49.454 52.7335 49.4699C52.2607 49.5034 51.7972 49.346 51.4419 49.035C51.0863 48.724 50.8695 48.284 50.8392 47.8126C50.3521 40.2208 44.0051 34.2738 36.3893 34.2738C31.2822 34.2738 26.6496 36.8846 23.9975 41.2575C23.7142 41.7243 23.2321 42.0349 22.69 42.0996C22.1475 42.164 21.6059 41.9758 21.221 41.5888C20.3524 40.7155 19.196 40.2346 17.9652 40.2346Z"/>
    <path d="M28.2213 88.3133C27.7668 88.3133 27.3122 88.1398 26.9655 87.7928C26.2726 87.0992 26.2732 85.9752 26.9668 85.2823L31.2061 81.0472C31.8997 80.3544 33.0236 80.3549 33.7165 81.0484C34.4094 81.742 34.4089 82.866 33.7152 83.5589L29.4759 87.794C29.1293 88.1402 28.6753 88.3133 28.2213 88.3133Z"/>
    <path d="M13.493 78.6637C13.0384 78.6637 12.5839 78.4902 12.2372 78.1431C11.5443 77.4495 11.5448 76.3256 12.2384 75.6327L14.912 72.9619C15.6054 72.2692 16.7293 72.2696 17.4223 72.9633C18.1152 73.6569 18.1147 74.7808 17.4211 75.4737L14.7475 78.1445C14.401 78.4907 13.947 78.6637 13.493 78.6637Z"/>
    <path d="M37.0245 78.6637C36.57 78.6637 36.1154 78.4903 35.7687 78.1432C35.0758 77.4496 35.0764 76.3256 35.77 75.6328L38.4433 72.962C39.1369 72.2693 40.2608 72.2696 40.9537 72.9632C41.6465 73.6568 41.646 74.7808 40.9524 75.4736L38.2791 78.1444C37.9325 78.4906 37.4785 78.6637 37.0245 78.6637Z"/>
    <path d="M44.6427 82.9237C44.1879 82.9237 43.7334 82.75 43.3867 82.4029C42.6938 81.7093 42.6945 80.5853 43.3883 79.8925L50.3278 72.9618C51.0215 72.2689 52.1453 72.2697 52.8382 72.9633C53.5311 73.657 53.5304 74.781 52.8366 75.4738L45.897 82.4045C45.5505 82.7507 45.0967 82.9237 44.6427 82.9237Z"/>
    <path d="M19.0796 84.7859C18.6251 84.7859 18.1705 84.6123 17.8238 84.2653C17.1309 83.5717 17.1315 82.4477 17.8251 81.7549L26.6268 72.962C27.3204 72.2691 28.4443 72.2697 29.1372 72.9632C29.8301 73.6568 29.8295 74.7808 29.1359 75.4736L20.3342 84.2665C19.9876 84.6128 19.5336 84.7859 19.0796 84.7859Z"/>
</symbol>
<symbol id="icon-wind" viewBox="0 0 66 47">
    <path d="M54.3171 25.9035H7.02626C3.35038 25.9035 0.244751 22.7383 0.244751 18.9918C0.244751 15.1806 3.28195 12.0799 7.01513 12.0799C10.7454 12.0799 13.78 15.1602 13.78 18.9464C13.78 19.9784 12.9434 20.815 11.9114 20.815C10.8795 20.815 10.0428 19.9784 10.0428 18.9464C10.0428 17.2502 8.65635 15.8171 7.01513 15.8171C5.37098 15.8171 3.98194 17.2709 3.98194 18.9918C3.98194 20.7125 5.37609 22.1664 7.02626 22.1664H54.3171C55.349 22.1664 56.1856 23.0029 56.1856 24.035C56.1856 25.067 55.349 25.9035 54.3171 25.9035Z"/>
    <path d="M63.8469 17.8686H25.5664C20.8714 17.8686 17.0517 14.0112 17.0517 9.26985C17.0517 4.52847 20.8541 0.671021 25.5277 0.671021C30.1908 0.671021 33.9844 4.51296 33.9844 9.23536C33.9844 10.2674 33.1477 11.104 32.1158 11.104C31.0839 11.104 30.2472 10.2674 30.2472 9.23536C30.2472 6.5737 28.1301 4.40821 25.5277 4.40821C22.9148 4.40821 20.7889 6.58912 20.7889 9.26985C20.7889 11.905 22.9767 14.1314 25.5664 14.1314H63.8469C64.8788 14.1314 65.7155 14.968 65.7155 16C65.7155 17.032 64.8788 17.8686 63.8469 17.8686Z"/>
    <path d="M13.0891 46.7988C10.8209 46.7988 8.69393 45.938 7.09978 44.3751C5.48994 42.7968 4.60327 40.6771 4.60327 38.4067C4.60327 33.7792 8.41856 30.0145 13.1081 30.0145H59.736C60.7679 30.0145 61.6046 30.8511 61.6046 31.8831C61.6046 32.915 60.7679 33.7517 59.736 33.7517H13.1081C10.4346 33.7517 8.34046 35.7963 8.34046 38.4067C8.34046 41.0169 10.4264 43.0616 13.0891 43.0616C15.7466 43.0616 17.8283 41.0018 17.8283 38.3722C17.8283 37.3403 18.665 36.5036 19.6969 36.5036C20.7288 36.5036 21.5655 37.3403 21.5655 38.3722C21.5655 43.0187 17.763 46.7988 13.0891 46.7988Z"/>
</symbol>
<symbol id="icon-wind-cloud-rain" viewBox="0 0 82 79">
    <path d="M75.0497 47.4382H15.683C14.651 47.4382 13.8144 46.6015 13.8144 45.5696C13.8144 44.5377 14.651 43.701 15.683 43.701H75.0497C76.711 43.701 78.1145 42.2793 78.1145 40.5965C78.1145 38.8846 76.763 37.492 75.1017 37.492C73.4549 37.492 72.1149 38.8748 72.1149 40.5744C72.1149 41.6063 71.2782 42.443 70.2463 42.443C69.2144 42.443 68.3777 41.6063 68.3777 40.5744C68.3777 36.814 71.3941 33.7548 75.1017 33.7548C78.8236 33.7548 81.8517 36.8239 81.8517 40.5965C81.8517 44.3691 78.8004 47.4382 75.0497 47.4382Z"/>
    <path d="M61.2029 68.4736C58.933 68.4736 56.8114 67.5908 55.2289 65.9879C53.6566 64.3952 52.7908 62.2687 52.7908 60.0003C52.7908 58.9684 53.6274 58.1317 54.6594 58.1317C55.6913 58.1317 56.528 58.9684 56.528 60.0003C56.528 62.6561 58.5814 64.7364 61.2029 64.7364C63.8478 64.7364 65.9197 62.6609 65.9197 60.0115C65.9197 57.406 63.7664 55.2863 61.1197 55.2863H11.0114C9.97949 55.2863 9.14282 54.4497 9.14282 53.4177C9.14282 52.3858 9.97949 51.5491 11.0114 51.5491H61.1197C65.8271 51.5491 69.6568 55.3453 69.6568 60.0115C69.6568 64.6775 65.8644 68.4736 61.2029 68.4736Z"/>
    <path d="M40.7521 40.5244H20.5413C19.5094 40.5244 18.6727 39.6877 18.6727 38.6558C18.6727 37.6238 19.5094 36.7872 20.5413 36.7872H40.7521C43.3987 36.7872 45.552 34.6542 45.552 32.0323C45.552 29.4104 43.4362 27.2772 40.8353 27.2772C38.2138 27.2772 36.1603 29.3664 36.1603 32.0334C36.1603 33.0653 35.3236 33.902 34.2917 33.902C33.2598 33.902 32.4231 33.0653 32.4231 32.0334C32.4231 27.3502 36.1968 23.54 40.8353 23.54C45.4967 23.54 49.2892 27.3497 49.2892 32.0323C49.2892 36.7149 45.4595 40.5244 40.7521 40.5244Z"/>
    <path d="M30.0633 78.4456C29.5847 78.4456 29.1062 78.2629 28.7414 77.8976C28.0121 77.1675 28.0126 75.9843 28.7427 75.2551L33.422 70.5805C34.1521 69.8511 35.3355 69.8517 36.0645 70.5818C36.7939 71.3119 36.7934 72.4951 36.0633 73.2243L31.3839 77.8989C31.0191 78.2633 30.5412 78.4456 30.0633 78.4456Z"/>
    <path d="M13.8065 67.7946C13.3279 67.7946 12.8496 67.6119 12.4846 67.2466C11.7553 66.5165 11.7558 65.3335 12.4859 64.6041L15.4368 61.6561C16.1669 60.9268 17.3499 60.9273 18.0793 61.6574C18.8087 62.3875 18.8081 63.5705 18.078 64.2999L15.1271 67.2479C14.7623 67.6123 14.2844 67.7946 13.8065 67.7946Z"/>
    <path d="M39.7799 67.7946C39.3013 67.7946 38.823 67.6119 38.458 67.2466C37.7287 66.5165 37.7292 65.3335 38.4593 64.6041L41.4102 61.6561C42.1403 60.9268 43.3233 60.9273 44.0527 61.6574C44.7821 62.3875 44.7815 63.5705 44.0514 64.2999L41.1005 67.2479C40.7358 67.6123 40.2578 67.7946 39.7799 67.7946Z"/>
    <path d="M47.8149 74.9257C47.3359 74.9257 46.8569 74.7427 46.4918 74.3766C45.7631 73.6458 45.7648 72.4628 46.4954 71.734L50.0443 68.195C50.7751 67.4663 51.958 67.4678 52.687 68.1986C53.4156 68.9294 53.414 70.1125 52.6833 70.8413L49.1344 74.3803C48.7697 74.744 48.2923 74.9257 47.8149 74.9257Z"/>
    <path d="M19.9729 74.552C19.4942 74.552 19.0158 74.3693 18.651 74.004C17.9216 73.2739 17.9222 72.0909 18.6523 71.3615L28.3675 61.6561C29.0976 60.9268 30.281 60.9273 31.01 61.6574C31.7394 62.3875 31.7388 63.5705 31.0087 64.2999L21.2935 74.0053C20.9287 74.3697 20.4508 74.552 19.9729 74.552Z"/>
    <path d="M53.9472 40.7112H52.1205C51.0886 40.7112 50.2519 39.8746 50.2519 38.8426C50.2519 37.8107 51.0886 36.9741 52.1205 36.9741H53.9149C58.6181 36.8036 62.2978 33.0852 62.2978 28.4962C62.2978 23.8273 58.5053 20.029 53.8439 20.029C53.6041 20.029 53.4152 20.0343 53.2495 20.0457C52.7506 20.0808 52.264 19.9155 51.8899 19.5881C51.5156 19.2607 51.2873 18.7976 51.2554 18.3014C50.7627 10.6205 44.3427 4.60392 36.6397 4.60392C31.4733 4.60392 26.7876 7.24404 24.1053 11.6661C23.8073 12.1575 23.2996 12.4845 22.729 12.5526C22.1601 12.6203 21.5882 12.4225 21.1829 12.0148C20.3121 11.1394 19.1539 10.6573 17.9212 10.6573C15.3848 10.6573 13.3211 12.7208 13.3211 15.2571C13.3211 15.9805 13.4853 16.6741 13.8092 17.3186C14.0946 17.8863 14.072 18.5598 13.7494 19.1069C13.4266 19.6541 12.8481 19.9999 12.2134 20.0249C7.67333 20.2041 4.1168 23.9136 4.1168 28.4698C4.1168 33.1144 7.89158 36.918 12.5315 36.9485L14.1441 36.9494C15.176 36.95 16.0121 37.787 16.0116 38.8191C16.011 39.8507 15.1745 40.6866 14.143 40.6866H14.1419L12.518 40.6857C5.81989 40.6415 0.379608 35.1615 0.379608 28.4698C0.379608 22.7163 4.31515 17.8992 9.69357 16.616C9.62058 16.1706 9.5839 15.7171 9.5839 15.2571C9.5839 10.6601 13.324 6.92014 17.9212 6.92014C19.4028 6.92014 20.8247 7.30389 22.0745 8.02487C25.5409 3.50813 30.8494 0.86673 36.6397 0.86673C45.7204 0.86673 53.3807 7.52962 54.791 16.3283C61.0721 16.8138 66.035 22.0859 66.035 28.4962C66.035 35.1222 60.7526 40.4873 54.0088 40.7101C53.9884 40.7109 53.9678 40.7112 53.9472 40.7112Z"/>
</symbol>
<symbol id="icon-wind-rain" viewBox="0 0 66 57">
    <path d="M58.6814 25.4792H11.4605C10.4286 25.4792 9.59192 24.6426 9.59192 23.6106C9.59192 22.5787 10.4286 21.742 11.4605 21.742H58.6814C60.3363 21.742 61.7345 20.3203 61.7345 18.6375C61.7345 16.9257 60.3778 15.533 58.7101 15.533C57.0502 15.533 55.6999 16.9158 55.6999 18.6154C55.6999 19.6473 54.8632 20.484 53.8313 20.484C52.7994 20.484 51.9627 19.6473 51.9627 18.6154C51.9627 14.8551 54.9895 11.7958 58.7101 11.7958C62.4385 11.7958 65.4717 14.8649 65.4717 18.6375C65.4717 22.4101 62.4255 25.4792 58.6814 25.4792Z"/>
    <path d="M40.1413 17.4443H1.93067C0.898744 17.4443 0.0620728 16.6076 0.0620728 15.5757C0.0620728 14.5437 0.898744 13.7071 1.93067 13.7071H40.1413C42.7805 13.7071 44.9275 11.5576 44.9275 8.9155C44.9275 6.27356 42.8056 4.12412 40.1975 4.12412C37.6048 4.12412 35.4955 6.26845 35.4955 8.90437C35.4955 9.9363 34.6588 10.773 33.6269 10.773C32.595 10.773 31.7583 9.9363 31.7583 8.90437C31.7583 4.20788 35.544 0.386932 40.1975 0.386932C44.8664 0.386932 48.6647 4.21281 48.6647 8.9155C48.6647 13.6182 44.841 17.4443 40.1413 17.4443Z"/>
    <path d="M55.9995 46.5146C51.3353 46.5146 47.5406 42.7135 47.5406 38.0413C47.5406 37.0094 48.3773 36.1727 49.4092 36.1727C50.4412 36.1727 51.2778 37.0094 51.2778 38.0413C51.2778 40.6528 53.3959 42.7774 55.9995 42.7774C58.6132 42.7774 60.7396 40.6577 60.7396 38.0524C60.7396 35.447 58.5969 33.3273 55.963 33.3273H5.66785C4.63593 33.3273 3.79926 32.4906 3.79926 31.4587C3.79926 30.4268 4.63593 29.5901 5.66785 29.5901H55.963C60.6575 29.5901 64.4768 33.3862 64.4768 38.0524C64.4768 42.7184 60.6739 46.5146 55.9995 46.5146Z"/>
    <path d="M24.9065 56.4866C24.4279 56.4866 23.9494 56.3039 23.5847 55.9386C22.8553 55.2085 22.8558 54.0253 23.5859 53.2961L28.2653 48.6215C28.9954 47.8921 30.1788 47.8927 30.9078 48.6228C31.6371 49.3529 31.6366 50.5361 30.9065 51.2653L26.2272 55.9399C25.8624 56.3043 25.3845 56.4866 24.9065 56.4866Z"/>
    <path d="M8.6498 45.8356C8.17116 45.8356 7.69288 45.6529 7.32792 45.2876C6.59854 44.5575 6.59909 43.3745 7.32919 42.6451L10.2801 39.6971C11.0102 38.9678 12.1932 38.9683 12.9226 39.6984C13.6519 40.4285 13.6514 41.6115 12.9213 42.3409L9.97041 45.2889C9.60563 45.6533 9.12771 45.8356 8.6498 45.8356Z"/>
    <path d="M34.6232 45.8356C34.1446 45.8356 33.6663 45.6529 33.3014 45.2876C32.572 44.5575 32.5725 43.3745 33.3026 42.6451L36.2535 39.6971C36.9836 38.9678 38.1666 38.9683 38.896 39.6984C39.6254 40.4285 39.6248 41.6115 38.8947 42.3409L35.9439 45.2889C35.5791 45.6533 35.1012 45.8356 34.6232 45.8356Z"/>
    <path d="M42.6582 52.9667C42.1792 52.9667 41.7002 52.7837 41.3351 52.4176C40.6064 51.6868 40.6081 50.5038 41.3387 49.775L44.8876 46.2359C45.6184 45.5075 46.8012 45.5086 47.5303 46.2396C48.2589 46.9704 48.2572 48.1534 47.5266 48.8823L43.9777 52.4213C43.6129 52.785 43.1356 52.9667 42.6582 52.9667Z"/>
    <path d="M14.8162 52.593C14.3375 52.593 13.8591 52.4103 13.4943 52.045C12.7649 51.3149 12.7655 50.1319 13.4956 49.4025L23.2108 39.6971C23.9409 38.9678 25.1243 38.9683 25.8533 39.6984C26.5827 40.4285 26.5821 41.6115 25.852 42.3409L16.1368 52.0463C15.772 52.4107 15.2941 52.593 14.8162 52.593Z"/>
</symbol>
<symbol id="icon-setting" viewBox="0 0 24 24" stroke="white" stroke-width="1.5">
    <path d="M10.343 3.94c.09-.542.56-.94 1.11-.94h1.093c.55 0 1.02.398 1.11.94l.149.894c.07.424.384.764.78.93.398.164.855.142 1.205-.108l.737-.527a1.125 1.125 0 011.45.12l.773.774c.39.389.44 1.002.12 1.45l-.527.737c-.25.35-.272.806-.107 1.204.165.397.505.71.93.78l.893.15c.543.09.94.56.94 1.109v1.094c0 .55-.397 1.02-.94 1.11l-.893.149c-.425.07-.765.383-.93.78-.165.398-.143.854.107 1.204l.527.738c.32.447.269 1.06-.12 1.45l-.774.773a1.125 1.125 0 01-1.449.12l-.738-.527c-.35-.25-.806-.272-1.203-.107-.397.165-.71.505-.781.929l-.149.894c-.09.542-.56.94-1.11.94h-1.094c-.55 0-1.019-.398-1.11-.94l-.148-.894c-.071-.424-.384-.764-.781-.93-.398-.164-.854-.142-1.204.108l-.738.527c-.447.32-1.06.269-1.45-.12l-.773-.774a1.125 1.125 0 01-.12-1.45l.527-.737c.25-.35.273-.806.108-1.204-.165-.397-.505-.71-.93-.78l-.894-.15c-.542-.09-.94-.56-.94-1.109v-1.094c0-.55.398-1.02.94-1.11l.894-.149c.424-.07.765-.383.93-.78.165-.398.143-.854-.107-1.204l-.527-.738a1.125 1.125 0 01.12-1.45l.773-.773a1.125 1.125 0 011.45-.12l.737.527c.35.25.807.272 1.204.107.397-.165.71-.505.78-.929l.15-.894z"/>
    <path fill="#111827" strokeLinecap="round" strokeLinejoin="round" d="M15 12a3 3 0 11-6 0 3 3 0 016 0z"/>
</symbol>
<symbol id="icon-humidity" viewBox="0 0 23 35" stroke="white" stroke-width="1">
    <path d="M11.4133 0.648682L10.8093 1.55468L8.99726 4.27268H8.84626C8.11515 5.37055 6.04149 8.71121 4.01426 12.4267C1.98703 16.1422 0.0882568 20.1082 0.0882568 22.9967C0.0882568 29.2271 5.17791 34.3217 11.4133 34.3217C17.6628 34.327 22.7383 29.2263 22.7383 22.9967C22.7383 20.1089 20.8378 16.1423 18.8123 12.4267C16.7868 8.71104 14.5715 5.37627 13.8293 4.27268L12.0173 1.55468L11.4133 0.648682ZM11.4133 3.21568L12.6213 5.02768C13.348 6.10816 15.4658 9.38478 17.4533 13.0307C19.4407 16.6766 21.2283 20.8302 21.2283 22.9967C21.2283 28.4122 16.8475 32.8162 11.4133 32.8117C5.99383 32.8117 1.59826 28.4114 1.59826 22.9967C1.59826 20.8309 3.23289 16.6768 5.22226 13.0307C7.21163 9.3846 9.48193 6.11388 10.2053 5.02768L11.4133 3.21568Z"/>
</symbol>
<symbol id="icon-loader" viewBox="0 0 512 512" stroke="white" stroke-width="1">
    <path style="fill:#2D50A7;" d="M267.636,0c-12.853,0-23.273,10.42-23.273,23.273v93.091c0,12.853,10.42,23.273,23.273,23.273c12.853,0,23.273-10.42,23.273-23.273V23.273C290.909,10.42,280.489,0,267.636,0z"/>
    <path style="fill:#73A1FB;" d="M267.638,372.364c-12.853,0-23.273,10.42-23.273,23.273v93.091c0,12.853,10.42,23.273,23.273,23.273c12.853,0,23.273-10.42,23.273-23.273v-93.091C290.911,382.784,280.491,372.364,267.638,372.364z"/>
    <path style="fill:#355EC9;" d="M185.355,140.808L119.529,74.98c-9.086-9.089-23.822-9.089-32.912,0c-9.089,9.089-9.089,23.824,0,32.912l65.826,65.828c4.544,4.544,10.501,6.817,16.455,6.817c5.955,0,11.913-2.273,16.455-6.817C194.444,164.631,194.444,149.897,185.355,140.808z"/>
    <g>
        <path style="fill:#C4D9FD;" d="M477.091,232.727h-46.545c-12.853,0-23.273,10.42-23.273,23.273c0,12.853,10.42,23.273,23.273,23.273h46.545c12.853,0,23.273-10.42,23.273-23.273C500.364,243.147,489.944,232.727,477.091,232.727z"/>
        <path style="fill:#C4D9FD;" d="M382.83,338.283c-9.087-9.089-23.823-9.087-32.912,0c-9.089,9.089-9.087,23.823,0,32.912l65.828,65.825c4.544,4.544,10.501,6.816,16.457,6.816c5.956,0,11.913-2.273,16.455-6.816c9.089-9.089,9.089-23.824,0-32.912L382.83,338.283z"/>
    </g>
    <path style="fill:#3D6DEB;" d="M151.273,256c0-12.853-10.42-23.273-23.273-23.273H34.909c-12.853,0-23.273,10.42-23.273,23.273c0,12.853,10.42,23.273,23.273,23.273H128C140.853,279.273,151.273,268.853,151.273,256z"/>
    <path style="fill:#5286FA;" d="M185.355,338.283c-9.087-9.089-23.824-9.089-32.912,0l-65.825,65.825c-9.089,9.087-9.089,23.824,0,32.912c4.544,4.544,10.501,6.816,16.457,6.816c5.956,0,11.913-2.271,16.455-6.816l65.825-65.825C194.444,362.108,194.444,347.372,185.355,338.283z"/>
</symbol>
<symbol id="icon-location" viewBox="0 0 8.4666669 8.4666669" stroke="white" stroke-width="0">
    <g id="layer1" transform="translate(0,-288.53332)">
        <path d="m 4.2324219,288.79688 c -1.6042437,0 -2.9101556,1.30591 -2.9101563,2.91015 -10e-7,2.82277 2.7460938,4.96875 2.7460938,4.96875 a 0.26460978,0.26460978 0 0 0 0.3300781,0 c 0,0 2.7460996,-2.14598 2.7460937,-4.96875 -3.4e-6,-1.60424 -1.3078657,-2.91015 -2.9121093,-2.91015 z m 0,0.52929 c 1.3182605,0 2.3828097,1.0626 2.3828125,2.38086 4.8e-6,2.30926 -2.0910618,4.13374 -2.3808594,4.38086 -0.2884142,-0.24588 -2.3828134,-2.0707 -2.3828125,-4.38086 5e-7,-1.31826 1.0625988,-2.38086 2.3808594,-2.38086 z" />
        <path d="m 4.2324219,290.38477 c -0.7274912,0 -1.3222633,0.59477 -1.3222657,1.32226 -4.5e-6,0.7275 0.5947697,1.32422 1.3222657,1.32422 0.727496,0 1.3242233,-0.59672 1.3242187,-1.32422 -2.3e-6,-0.72749 -0.5967275,-1.32226 -1.3242187,-1.32226 z m 0,0.52929 c 0.4415089,0 0.7949204,0.35146 0.7949219,0.79297 2.7e-6,0.44151 -0.35341,0.79492 -0.7949219,0.79492 -0.441512,0 -0.7929715,-0.35341 -0.7929688,-0.79492 1.4e-6,-0.44151 0.3514598,-0.79297 0.7929688,-0.79297 z"/>
    </g>
</symbol>
<symbol id="icon-close" viewBox="0 0 24 24" stroke="white" stroke-width="0">
    <path d="M18 18L12 12M12 12L6 6M12 12L18 6M12 12L6 18" stroke-width="2" stroke-linecap="round" stroke-linejoin="round"/>
</symbol>
<symbol id="icon-delete" viewBox="0 0 24 24" fill="none" stroke="red">
    <path d="M4 7H20" stroke-width="2" stroke-linecap="round" stroke-linejoin="round"/>
    <path d="M6 7V18C6 19.6569 7.34315 21 9 21H15C16.6569 21 18 19.6569 18 18V7" stroke-width="2" stroke-linecap="round" stroke-linejoin="round"/>
    <path d="M9 5C9 3.89543 9.89543 3 11 3H13C14.1046 3 15 3.89543 15 5V7H9V5Z" stroke-width="2" stroke-linecap="round" stroke-linejoin="round"/>
</symbol>
</svg>